#!OML:ASF H:\Terrain\Patient Classification 1\Walking\liu\liu.ASF
:FULLY-SPECIFIED
:DEGREES
64
root 8.64751 16.3591 -23.7042 6.4459 -5.55068 -6.36546
lowerback -5.23676 2.6156 2.32087
upperback -0.269614 3.23252 4.24976
thorax 2.53929 1.61678 3.32262
lowerneck -22.58 -4.504 -13.3953
upperneck 19.5314 -4.99033 13.288
head 10.708 -1.72724 6.31369
rclavicle -1.86361e-015 3.49861e-014
rhumerus -27.363 18.7976 -84.3977
rradius 37.2287
rwrist -15.3625
rhand -31.1633 -26.8774
rfingers 7.12502
rthumb -4.44081 -56.8109
lclavicle -1.86361e-015 3.49861e-014
lhumerus -45.7733 2.7552 84.2391
lradius 19.9415
lwrist -4.65293
lhand -8.65601 -22.9099
lfingers 7.12502
lthumb 17.2775 6.34206
rfemur 18.7142 1.99322 29.886
rtibia 2.8625e-014
rfoot 1.80539 4.08473
rtoes -18.9112
lfemur -32.9036 -2.99888 -12.5378
ltibia 19.301
lfoot -3.68496 23.6785
ltoes -6.50801
65
root 8.66272 16.3785 -23.5201 6.23058 -5.65328 -5.78418
lowerback -5.38452 2.46716 1.57881
upperback -0.194858 3.07274 4.15183
thorax 2.67156 1.52867 3.63536
lowerneck -22.1585 -3.82328 -12.4517
upperneck 19.2905 -4.1396 12.3079
head 10.3597 -1.38854 5.8958
rclavicle -2.87989e-014 -2.38542e-014
rhumerus -27.5949 18.7787 -84.6367
rradius 36.7028
rwrist -14.9286
rhand -31.0137 -25.1819
rfingers 7.12502
rthumb -4.2964 -55.1183
lclavicle -2.87989e-014 -2.38542e-014
lhumerus -45.2382 3.49098 83.9935
lradius 19.3842
lwrist -4.99158
lhand -8.88854 -23.0649
lfingers 7.12502
lthumb 17.0537 6.20657
rfemur 19.3841 1.84844 29.0452
rtibia 0
rfoot 3.13526 3.78588
rtoes -16.9519
lfemur -32.2601 -1.35873 -13.9863
ltibia 19.7247
lfoot -2.5081 22.3311
ltoes -7.65016
66
root 8.68303 16.3936 -23.3379 6.01947 -5.52635 -5.35392
lowerback -5.33462 2.2746 1.08685
upperback -0.243112 2.85332 4.04836
thorax 2.58569 1.41497 3.78352
lowerneck -21.2348 -3.88324 -13.7469
upperneck 18.4573 -4.26247 14.0534
head 9.98831 -1.37001 6.72209
rclavicle -1.37161e-014 -6.99722e-014
rhumerus -27.8985 18.7726 -85.0174
rradius 36.0321
rwrist -14.6927
rhand -30.8496 -24.5019
rfingers 7.12502
rthumb -4.1379 -54.4415
lclavicle -1.37161e-014 -6.99722e-014
lhumerus -44.9689 3.99398 83.8356
lradius 19.1731
lwrist -5.02856
lhand -8.89185 -23.0407
lfingers 7.12502
lthumb 17.0505 6.23108
rfemur 18.0295 1.44313 28.3904
rtibia 4.07739
rfoot 2.66789 4.166
rtoes -21.0176
lfemur -31.7432 0.684806 -15.4951
ltibia 20.1091
lfoot -1.65913 19.8964
ltoes -7.14099
67
root 8.70592 16.4129 -23.158 5.82254 -5.24341 -4.84995
lowerback -5.15154 2.0985 0.668504
upperback -0.398624 2.66059 3.85485
thorax 2.32337 1.31847 3.78992
lowerneck -21.3721 -3.86292 -13.8402
upperneck 18.8825 -4.29944 14.3621
head 10.181 -1.35763 6.87335
rclavicle -4.17696e-014 0
rhumerus -28.1769 18.4253 -85.3963
rradius 35.2533
rwrist -14.4237
rhand -30.4516 -24.4858
rfingers 7.12502
rthumb -3.75361 -54.4324
lclavicle -4.17696e-014 0
lhumerus -44.7731 4.55082 83.4678
lradius 18.8554
lwrist -5.71334
lhand -8.86603 -23.1164
lfingers 7.12502
lthumb 17.0754 6.15323
rfemur 16.4587 0.878727 27.6399
rtibia 8.42461
rfoot 2.397 4.31594
rtoes -18.5916
lfemur -31.3016 2.41841 -16.9815
ltibia 20.4487
lfoot -1.24397 17.075
ltoes -5.73993
68
root 8.72639 16.4289 -22.9805 5.64367 -5.04281 -4.13967
lowerback -5.18018 1.93058 0.0678691
upperback -0.378399 2.47854 3.52911
thorax 2.35984 1.22252 3.77902
lowerneck -21.8561 -3.90583 -13.3471
upperneck 19.2499 -4.43247 14.0952
head 10.4053 -1.39713 6.6868
rclavicle 4.33599e-014 3.18055e-014
rhumerus -28.2227 17.8425 -85.7574
rradius 34.6091
rwrist -13.8471
rhand -29.7287 -23.951
rfingers 7.12502
rthumb -3.0555 -53.9088
lclavicle 4.33599e-014 3.18055e-014
lhumerus -44.154 4.76613 83.2065
lradius 18.3438
lwrist -6.50398
lhand -9.29382 -23.4907
lfingers 7.12502
lthumb 16.6636 5.81404
rfemur 15.1937 0.390631 26.6452
rtibia 11.9939
rfoot 2.82742 4.21005
rtoes -15.9274
lfemur -30.8485 3.36607 -18.2939
ltibia 20.8152
lfoot -1.39061 14.79
ltoes -5.14349
